<svg width="35" height="39" fill="none" xmlns="http://www.w3.org/2000/svg"><g clip-path="url(#clip0_2973_22851)"><path d="M28.154 25.803l-10.105-9.951-3.162 2.909 10.206 10.057 6.395 6.3 3.061-3.015-6.395-6.3z" fill="#763383"/><path d="M32.497 13.155C30.604 5.997 24.03 1 16.514 1 11.21 1 6.196 3.537 3.098 7.783A15.98 15.98 0 000 17.268c0 4.09 1.529 7.953 4.31 10.955-1.505-1.672-2.346-3.757-2.346-6.017 0-2.381.922-4.552 2.434-6.185a11.782 11.782 0 012.21-5.752c2.288-3.135 5.99-5.007 9.906-5.007 5.548 0 10.398 3.688 11.795 8.97.26.985.392 2.009.392 3.04 0 2.563-.807 5.007-2.336 7.071l.125-.173 3.091 3.046c2.073-2.796 3.446-6.47 3.446-9.945 0-1.396-.179-2.779-.53-4.116z" fill="#EB6F25"/><path d="M4.745 28.683zm21.745-4.516l-.125.173a12.214 12.214 0 01-9.851 4.937c-3.29 0-6.375-1.273-8.687-3.584-.955-.934-1.536-2.161-1.536-3.485 0-2.723 2.248-4.937 5.012-4.937 1.39 0 2.686.549 3.641 1.546l3.142-2.929a9.444 9.444 0 00-6.783-2.88 9.37 9.37 0 00-6.905 3.016 9.1 9.1 0 00-2.434 6.184c0 2.261.84 4.346 2.346 6.018.142.153.287.31.435.46 3.129 3.131 7.31 4.853 11.769 4.853 3.5 0 6.844-1.064 9.669-3.078a16.11 16.11 0 003.398-3.245l-3.091-3.05z" fill="#00A19B"/></g><defs><clipPath id="clip0_2973_22851"><path fill="#fff" transform="translate(0 1)" d="M0 0h35v34.119H0z"/></clipPath></defs></svg>
